<mxfile host="Electron" agent="Mozilla/5.0 (Windows NT 10.0; Win64; x64) AppleWebKit/537.36 (KHTML, like Gecko) draw.io/25.0.2 Chrome/128.0.6613.186 Electron/32.2.5 Safari/537.36" version="25.0.2">
  <diagram name="Page-1" id="6QzUn2V3MvcgAyyzUBYg">
    <mxGraphModel dx="2391" dy="1243" grid="1" gridSize="10" guides="1" tooltips="1" connect="1" arrows="1" fold="1" page="1" pageScale="1" pageWidth="1169" pageHeight="827" math="0" shadow="0">
      <root>
        <mxCell id="0" />
        <mxCell id="1" parent="0" />
        <mxCell id="za_Gmrkg7bb05d9KABW6-1" value="" style="image;html=1;image=img/lib/clip_art/computers/Secure_System_128x128.png" vertex="1" parent="1">
          <mxGeometry x="26" y="140" width="80" height="80" as="geometry" />
        </mxCell>
        <mxCell id="za_Gmrkg7bb05d9KABW6-13" value="Edge-Cloud Services" style="ellipse;shape=cloud;whiteSpace=wrap;html=1;" vertex="1" parent="1">
          <mxGeometry x="260" y="514" width="270" height="96" as="geometry" />
        </mxCell>
        <mxCell id="za_Gmrkg7bb05d9KABW6-9" value="" style="edgeStyle=orthogonalEdgeStyle;rounded=0;orthogonalLoop=1;jettySize=auto;html=1;exitX=0.505;exitY=0.826;exitDx=0;exitDy=0;exitPerimeter=0;" edge="1" parent="1" source="za_Gmrkg7bb05d9KABW6-6" target="za_Gmrkg7bb05d9KABW6-2">
          <mxGeometry relative="1" as="geometry">
            <mxPoint x="720" y="678" as="targetPoint" />
          </mxGeometry>
        </mxCell>
        <mxCell id="za_Gmrkg7bb05d9KABW6-42" value="Read User Preferences" style="edgeLabel;html=1;align=center;verticalAlign=middle;resizable=0;points=[];" vertex="1" connectable="0" parent="za_Gmrkg7bb05d9KABW6-9">
          <mxGeometry x="-0.2204" y="1" relative="1" as="geometry">
            <mxPoint as="offset" />
          </mxGeometry>
        </mxCell>
        <mxCell id="za_Gmrkg7bb05d9KABW6-11" value="" style="edgeStyle=orthogonalEdgeStyle;rounded=0;orthogonalLoop=1;jettySize=auto;html=1;exitX=1.02;exitY=0.337;exitDx=0;exitDy=0;exitPerimeter=0;entryX=0.008;entryY=0.33;entryDx=0;entryDy=0;entryPerimeter=0;" edge="1" parent="1" source="za_Gmrkg7bb05d9KABW6-2" target="za_Gmrkg7bb05d9KABW6-5">
          <mxGeometry relative="1" as="geometry">
            <mxPoint x="670" y="293" as="targetPoint" />
          </mxGeometry>
        </mxCell>
        <mxCell id="za_Gmrkg7bb05d9KABW6-12" value="&lt;p data-pm-slice=&quot;0 0 []&quot;&gt;Real-Time Telemetry Input&lt;/p&gt;" style="edgeLabel;html=1;align=center;verticalAlign=middle;resizable=0;points=[];" vertex="1" connectable="0" parent="za_Gmrkg7bb05d9KABW6-11">
          <mxGeometry x="-0.0386" y="3" relative="1" as="geometry">
            <mxPoint as="offset" />
          </mxGeometry>
        </mxCell>
        <mxCell id="za_Gmrkg7bb05d9KABW6-2" value="Telemetry Collection" style="rounded=1;whiteSpace=wrap;html=1;" vertex="1" parent="1">
          <mxGeometry x="360" y="228" width="80" height="130" as="geometry" />
        </mxCell>
        <mxCell id="za_Gmrkg7bb05d9KABW6-5" value="Local Model" style="rounded=1;whiteSpace=wrap;html=1;" vertex="1" parent="1">
          <mxGeometry x="640" y="228" width="80" height="130" as="geometry" />
        </mxCell>
        <mxCell id="za_Gmrkg7bb05d9KABW6-6" value="config.yml" style="shape=document;whiteSpace=wrap;html=1;boundedLbl=1;" vertex="1" parent="1">
          <mxGeometry x="360" y="108" width="80" height="50" as="geometry" />
        </mxCell>
        <mxCell id="za_Gmrkg7bb05d9KABW6-38" value="" style="edgeStyle=orthogonalEdgeStyle;rounded=0;orthogonalLoop=1;jettySize=auto;html=1;exitX=0;exitY=0.75;exitDx=0;exitDy=0;entryX=1;entryY=0.75;entryDx=0;entryDy=0;" edge="1" parent="1" source="za_Gmrkg7bb05d9KABW6-5" target="za_Gmrkg7bb05d9KABW6-2">
          <mxGeometry relative="1" as="geometry">
            <mxPoint x="452" y="282" as="sourcePoint" />
            <mxPoint x="651" y="281" as="targetPoint" />
          </mxGeometry>
        </mxCell>
        <mxCell id="za_Gmrkg7bb05d9KABW6-39" value="&lt;p data-pm-slice=&quot;0 0 []&quot;&gt;Inference Result&lt;br&gt;&lt;/p&gt;" style="edgeLabel;html=1;align=center;verticalAlign=middle;resizable=0;points=[];" vertex="1" connectable="0" parent="za_Gmrkg7bb05d9KABW6-38">
          <mxGeometry x="-0.0386" y="3" relative="1" as="geometry">
            <mxPoint as="offset" />
          </mxGeometry>
        </mxCell>
        <mxCell id="za_Gmrkg7bb05d9KABW6-40" value="Performs lightweight inference&amp;nbsp;&lt;div&gt;(e.g., anomaly detection)&lt;/div&gt;" style="text;html=1;align=left;verticalAlign=middle;resizable=0;points=[];autosize=1;strokeColor=none;fillColor=none;" vertex="1" parent="1">
          <mxGeometry x="740" y="228" width="190" height="40" as="geometry" />
        </mxCell>
        <mxCell id="za_Gmrkg7bb05d9KABW6-3" value="" style="edgeStyle=orthogonalEdgeStyle;rounded=0;orthogonalLoop=1;jettySize=auto;html=1;entryX=0;entryY=0.25;entryDx=0;entryDy=0;" edge="1" parent="1" source="za_Gmrkg7bb05d9KABW6-1" target="za_Gmrkg7bb05d9KABW6-2">
          <mxGeometry relative="1" as="geometry">
            <mxPoint x="270" y="280" as="targetPoint" />
          </mxGeometry>
        </mxCell>
        <mxCell id="za_Gmrkg7bb05d9KABW6-4" value="Raw Telemetry" style="edgeLabel;html=1;align=center;verticalAlign=middle;resizable=0;points=[];" vertex="1" connectable="0" parent="za_Gmrkg7bb05d9KABW6-3">
          <mxGeometry x="-0.1684" relative="1" as="geometry">
            <mxPoint as="offset" />
          </mxGeometry>
        </mxCell>
        <mxCell id="za_Gmrkg7bb05d9KABW6-20" style="edgeStyle=orthogonalEdgeStyle;rounded=0;orthogonalLoop=1;jettySize=auto;html=1;entryX=0.25;entryY=0.25;entryDx=0;entryDy=0;entryPerimeter=0;exitX=0.25;exitY=1;exitDx=0;exitDy=0;" edge="1" parent="1" source="za_Gmrkg7bb05d9KABW6-2" target="za_Gmrkg7bb05d9KABW6-13">
          <mxGeometry relative="1" as="geometry">
            <mxPoint x="670" y="430" as="sourcePoint" />
          </mxGeometry>
        </mxCell>
        <mxCell id="za_Gmrkg7bb05d9KABW6-32" value="Anomaly&amp;nbsp;&lt;div&gt;Upload&lt;br&gt;&lt;/div&gt;" style="edgeLabel;html=1;align=center;verticalAlign=middle;resizable=0;points=[];" vertex="1" connectable="0" parent="za_Gmrkg7bb05d9KABW6-20">
          <mxGeometry x="-0.3984" y="6" relative="1" as="geometry">
            <mxPoint x="-66" y="44" as="offset" />
          </mxGeometry>
        </mxCell>
        <mxCell id="za_Gmrkg7bb05d9KABW6-45" value="PC" style="text;html=1;align=center;verticalAlign=middle;resizable=0;points=[];autosize=1;strokeColor=none;fillColor=none;" vertex="1" parent="1">
          <mxGeometry x="36" y="220" width="40" height="30" as="geometry" />
        </mxCell>
        <mxCell id="za_Gmrkg7bb05d9KABW6-48" value="" style="sketch=0;outlineConnect=0;fontColor=#232F3E;gradientColor=none;fillColor=#232F3D;strokeColor=none;dashed=0;verticalLabelPosition=bottom;verticalAlign=top;align=center;html=1;fontSize=12;fontStyle=0;aspect=fixed;pointerEvents=1;shape=mxgraph.aws4.user;" vertex="1" parent="1">
          <mxGeometry x="12" y="290" width="78" height="78" as="geometry" />
        </mxCell>
        <mxCell id="za_Gmrkg7bb05d9KABW6-49" value="User" style="text;html=1;align=center;verticalAlign=middle;resizable=0;points=[];autosize=1;strokeColor=none;fillColor=none;" vertex="1" parent="1">
          <mxGeometry x="26" y="368" width="50" height="30" as="geometry" />
        </mxCell>
        <mxCell id="za_Gmrkg7bb05d9KABW6-52" style="edgeStyle=orthogonalEdgeStyle;rounded=0;orthogonalLoop=1;jettySize=auto;html=1;entryX=0.5;entryY=1;entryDx=0;entryDy=0;exitX=0.625;exitY=0.2;exitDx=0;exitDy=0;exitPerimeter=0;" edge="1" parent="1" source="za_Gmrkg7bb05d9KABW6-13" target="za_Gmrkg7bb05d9KABW6-2">
          <mxGeometry relative="1" as="geometry">
            <mxPoint x="772" y="590" as="sourcePoint" />
            <mxPoint x="740" y="714" as="targetPoint" />
          </mxGeometry>
        </mxCell>
        <mxCell id="za_Gmrkg7bb05d9KABW6-53" value="Model Updates,&amp;nbsp;&lt;div&gt;Advice&lt;br&gt;&lt;/div&gt;" style="edgeLabel;html=1;align=center;verticalAlign=middle;resizable=0;points=[];" vertex="1" connectable="0" parent="za_Gmrkg7bb05d9KABW6-52">
          <mxGeometry x="-0.3984" y="6" relative="1" as="geometry">
            <mxPoint as="offset" />
          </mxGeometry>
        </mxCell>
        <mxCell id="za_Gmrkg7bb05d9KABW6-57" value="" style="edgeStyle=orthogonalEdgeStyle;rounded=0;orthogonalLoop=1;jettySize=auto;html=1;exitX=0;exitY=0.75;exitDx=0;exitDy=0;" edge="1" parent="1" source="za_Gmrkg7bb05d9KABW6-2" target="za_Gmrkg7bb05d9KABW6-48">
          <mxGeometry relative="1" as="geometry">
            <mxPoint x="110" y="610" as="sourcePoint" />
            <mxPoint x="370" y="271" as="targetPoint" />
          </mxGeometry>
        </mxCell>
        <mxCell id="za_Gmrkg7bb05d9KABW6-58" value="&lt;p data-pm-slice=&quot;1 1 []&quot;&gt;User Interaction (e.g., alert, approval)&lt;/p&gt;" style="edgeLabel;html=1;align=center;verticalAlign=middle;resizable=0;points=[];" vertex="1" connectable="0" parent="za_Gmrkg7bb05d9KABW6-57">
          <mxGeometry x="-0.1684" relative="1" as="geometry">
            <mxPoint as="offset" />
          </mxGeometry>
        </mxCell>
        <mxCell id="za_Gmrkg7bb05d9KABW6-60" value="Edgeâ€“Cloud Intelligent Assistant Workflow" style="text;strokeColor=none;align=center;fillColor=none;html=1;verticalAlign=middle;whiteSpace=wrap;rounded=0;" vertex="1" parent="1">
          <mxGeometry x="95" y="660" width="600" height="30" as="geometry" />
        </mxCell>
      </root>
    </mxGraphModel>
  </diagram>
</mxfile>
